<svg xmlns="http://www.w3.org/2000/svg" xmlns:xlink="http://www.w3.org/1999/xlink" width="500" zoomAndPan="magnify" viewBox="0 0 375 374.999991" height="500" preserveAspectRatio="xMidYMid meet" version="1.0"><defs><g/><clipPath id="b80d0d20f0"><path d="M 221 196 L 274 196 L 274 247.523438 L 221 247.523438 Z M 221 196 " clip-rule="nonzero"/></clipPath><clipPath id="46bc9834d5"><path d="M 139 196 L 191 196 L 191 247.523438 L 139 247.523438 Z M 139 196 " clip-rule="nonzero"/></clipPath><clipPath id="e47e442f78"><path d="M 35.496094 150 L 145 150 L 145 161 L 35.496094 161 Z M 35.496094 150 " clip-rule="nonzero"/></clipPath><clipPath id="2d17644f2b"><path d="M 203.6875 130.355469 L 286.1875 130.355469 L 286.1875 158.855469 L 203.6875 158.855469 Z M 203.6875 130.355469 " clip-rule="nonzero"/></clipPath></defs><rect x="-37.5" width="450" fill="#ffffff" y="-37.499999" height="449.999989" fill-opacity="1"/><rect x="-37.5" width="450" fill="#ffffff" y="-37.499999" height="449.999989" fill-opacity="1"/><g fill="#4d4d4d" fill-opacity="1"><g transform="translate(26.721006, 315.230667)"><g><path d="M 4.15625 -3.8125 L 4.15625 -53.625 C 4.15625 -55.007812 4.5 -56.101562 5.1875 -56.90625 C 5.875 -57.707031 6.773438 -58.109375 7.890625 -58.109375 L 21.75 -58.109375 C 30.550781 -58.109375 37.234375 -55.894531 41.796875 -51.46875 C 46.359375 -47.039062 48.640625 -40.066406 48.640625 -30.546875 C 48.640625 -10.179688 39.953125 0 22.578125 0 L 8.390625 0 C 5.566406 0 4.15625 -1.269531 4.15625 -3.8125 Z M 20.09375 -42.34375 L 20.09375 -17.515625 C 20.09375 -16.347656 20.175781 -15.613281 20.34375 -15.3125 C 20.507812 -15.007812 21.003906 -14.859375 21.828125 -14.859375 C 24.878906 -14.859375 27.191406 -15.992188 28.765625 -18.265625 C 30.335938 -20.535156 31.125 -24.3125 31.125 -29.59375 C 31.125 -34.875 30.304688 -38.316406 28.671875 -39.921875 C 27.046875 -41.535156 24.460938 -42.34375 20.921875 -42.34375 Z M 20.09375 -42.34375 "/></g></g></g><g fill="#4d4d4d" fill-opacity="1"><g transform="translate(77.859286, 315.230667)"><g><path d="M 21.921875 -0.078125 C 21.921875 0.304688 19.398438 0.5 14.359375 0.5 C 9.328125 0.382812 6.8125 0.160156 6.8125 -0.171875 L 6.8125 -27.734375 L 4.5625 -27.734375 C 3.675781 -27.734375 2.96875 -28.269531 2.4375 -29.34375 C 1.914062 -30.425781 1.65625 -31.769531 1.65625 -33.375 C 1.65625 -39.351562 3.425781 -42.34375 6.96875 -42.34375 C 9.457031 -42.34375 11.53125 -41.578125 13.1875 -40.046875 C 14.851562 -38.523438 15.6875 -36.796875 15.6875 -34.859375 C 16.851562 -37.128906 18.414062 -38.941406 20.375 -40.296875 C 22.34375 -41.660156 24.351562 -42.34375 26.40625 -42.34375 C 29.613281 -42.34375 31.546875 -41.507812 32.203125 -39.84375 C 32.367188 -39.40625 32.453125 -38.753906 32.453125 -37.890625 C 32.453125 -37.035156 32.1875 -35.5 31.65625 -33.28125 C 31.132812 -31.070312 30.597656 -29.46875 30.046875 -28.46875 C 29.492188 -27.476562 29.160156 -26.984375 29.046875 -26.984375 C 28.941406 -26.984375 28.429688 -27.1875 27.515625 -27.59375 C 26.609375 -28.007812 25.796875 -28.21875 25.078125 -28.21875 C 22.972656 -28.21875 21.921875 -26.5625 21.921875 -23.25 Z M 21.921875 -0.078125 "/></g></g></g><g fill="#4d4d4d" fill-opacity="1"><g transform="translate(110.733888, 315.230667)"><g><path d="M 35.109375 -2.234375 C 31.628906 -0.191406 27.148438 0.828125 21.671875 0.828125 C 16.191406 0.828125 11.566406 -1.035156 7.796875 -4.765625 C 4.035156 -8.503906 2.15625 -13.679688 2.15625 -20.296875 C 2.15625 -26.910156 3.96875 -32.238281 7.59375 -36.28125 C 11.21875 -40.320312 15.796875 -42.34375 21.328125 -42.34375 C 26.867188 -42.34375 31.144531 -40.929688 34.15625 -38.109375 C 37.175781 -35.285156 38.6875 -31.851562 38.6875 -27.8125 C 38.6875 -18.84375 33.539062 -14.359375 23.25 -14.359375 L 17.515625 -14.359375 C 17.515625 -12.703125 17.96875 -11.554688 18.875 -10.921875 C 19.789062 -10.285156 21.132812 -9.96875 22.90625 -9.96875 C 26.78125 -9.96875 30.460938 -10.851562 33.953125 -12.625 C 34.003906 -12.675781 34.253906 -12.285156 34.703125 -11.453125 C 36.023438 -9.078125 36.6875 -7.070312 36.6875 -5.4375 C 36.6875 -3.800781 36.160156 -2.734375 35.109375 -2.234375 Z M 24.734375 -26.234375 C 24.734375 -28.554688 23.597656 -29.71875 21.328125 -29.71875 C 20.273438 -29.71875 19.375 -29.398438 18.625 -28.765625 C 17.882812 -28.128906 17.515625 -27.203125 17.515625 -25.984375 L 17.515625 -23.40625 L 22 -23.40625 C 23.820312 -23.40625 24.734375 -24.347656 24.734375 -26.234375 Z M 24.734375 -26.234375 "/></g></g></g><g fill="#4d4d4d" fill-opacity="1"><g transform="translate(151.080001, 315.230667)"><g><path d="M 8.96875 -30.140625 C 7.414062 -32.898438 6.640625 -35.148438 6.640625 -36.890625 C 6.640625 -38.640625 7.109375 -39.765625 8.046875 -40.265625 C 11.203125 -41.648438 15.53125 -42.34375 21.03125 -42.34375 C 26.539062 -42.34375 30.429688 -41.054688 32.703125 -38.484375 C 34.972656 -35.910156 36.109375 -32.101562 36.109375 -27.0625 L 36.109375 -13.953125 L 38.9375 -13.953125 C 39.875 -13.953125 40.601562 -13.394531 41.125 -12.28125 C 41.65625 -11.175781 41.921875 -9.65625 41.921875 -7.71875 C 41.921875 -5.78125 41.4375 -3.867188 40.46875 -1.984375 C 39.5 -0.109375 38.1875 0.828125 36.53125 0.828125 C 33.539062 0.828125 31.128906 0.0234375 29.296875 -1.578125 C 28.472656 -2.242188 27.835938 -3.046875 27.390625 -3.984375 C 24.847656 -0.773438 20.894531 0.828125 15.53125 0.828125 C 11.488281 0.828125 8.082031 -0.609375 5.3125 -3.484375 C 2.539062 -6.359375 1.15625 -9.765625 1.15625 -13.703125 C 1.15625 -22.722656 6.550781 -27.234375 17.34375 -27.234375 L 21.921875 -27.234375 L 21.921875 -28.0625 C 21.921875 -29.5 21.679688 -30.425781 21.203125 -30.84375 C 20.734375 -31.257812 19.644531 -31.46875 17.9375 -31.46875 C 15.832031 -31.46875 12.84375 -31.023438 8.96875 -30.140625 Z M 15.609375 -14.859375 C 15.609375 -13.640625 15.9375 -12.710938 16.59375 -12.078125 C 17.257812 -11.441406 18.101562 -11.125 19.125 -11.125 C 20.15625 -11.125 21.085938 -11.539062 21.921875 -12.375 L 21.921875 -18.765625 L 19.59375 -18.765625 C 16.9375 -18.765625 15.609375 -17.460938 15.609375 -14.859375 Z M 15.609375 -14.859375 "/></g></g></g><g fill="#4d4d4d" fill-opacity="1"><g transform="translate(193.999622, 315.230667)"><g><path d="M 41.34375 -0.421875 C 41.34375 -0.0234375 38.972656 0.171875 34.234375 0.171875 C 29.503906 0.171875 27.140625 -0.078125 27.140625 -0.578125 L 27.140625 -24.734375 C 27.140625 -27.503906 26.226562 -28.890625 24.40625 -28.890625 C 23.46875 -28.890625 22.222656 -28.28125 20.671875 -27.0625 L 20.671875 -0.5 C 20.671875 0.0507812 18.300781 0.328125 13.5625 0.328125 C 8.832031 0.328125 6.46875 0.0234375 6.46875 -0.578125 L 6.46875 -27.734375 L 4.40625 -27.734375 C 2.570312 -27.734375 1.65625 -29.640625 1.65625 -33.453125 C 1.65625 -35.171875 1.988281 -36.914062 2.65625 -38.6875 C 3.539062 -41.125 4.976562 -42.34375 6.96875 -42.34375 C 8.96875 -42.34375 10.894531 -41.816406 12.75 -40.765625 C 14.601562 -39.710938 15.722656 -38.710938 16.109375 -37.765625 C 19.535156 -40.816406 23.335938 -42.34375 27.515625 -42.34375 C 31.691406 -42.34375 35.054688 -41.039062 37.609375 -38.4375 C 40.597656 -41.039062 44.191406 -42.34375 48.390625 -42.34375 C 57.523438 -42.34375 62.09375 -36.78125 62.09375 -25.65625 L 62.09375 -0.421875 C 62.09375 -0.0234375 59.726562 0.171875 55 0.171875 C 50.269531 0.171875 47.90625 -0.078125 47.90625 -0.578125 L 47.90625 -24.734375 C 47.90625 -27.503906 46.988281 -28.890625 45.15625 -28.890625 C 44.164062 -28.890625 42.894531 -28.28125 41.34375 -27.0625 Z M 41.34375 -0.421875 "/></g></g></g><g fill="#4d4d4d" fill-opacity="1"><g transform="translate(259.416759, 315.230667)"><g><path d="M 18.921875 -0.5 C 18.921875 -0.0507812 16.390625 0.171875 11.328125 0.171875 C 6.265625 0.171875 3.734375 -0.0234375 3.734375 -0.421875 L 3.734375 -41.171875 C 3.734375 -41.554688 6.265625 -41.75 11.328125 -41.75 C 16.390625 -41.75 18.921875 -41.585938 18.921875 -41.265625 Z M 18.921875 -46.15625 C 18.921875 -45.769531 16.390625 -45.578125 11.328125 -45.578125 C 6.265625 -45.578125 3.734375 -45.742188 3.734375 -46.078125 L 3.734375 -58.03125 C 3.734375 -58.582031 6.265625 -58.859375 11.328125 -58.859375 C 16.390625 -58.859375 18.921875 -58.691406 18.921875 -58.359375 Z M 18.921875 -46.15625 "/></g></g></g><g fill="#4d4d4d" fill-opacity="1"><g transform="translate(282.080307, 315.230667)"><g><path d="M 6.96875 -30.46875 L 2.90625 -30.46875 C 2.070312 -30.46875 1.65625 -32.304688 1.65625 -35.984375 C 1.65625 -39.671875 2.070312 -41.515625 2.90625 -41.515625 L 6.96875 -41.515625 L 6.96875 -43.328125 C 6.96875 -49.203125 8.195312 -53.257812 10.65625 -55.5 C 13.125 -57.738281 16.570312 -58.859375 21 -58.859375 C 25.425781 -58.859375 29.328125 -58.054688 32.703125 -56.453125 C 33.148438 -56.285156 33.375 -55.6875 33.375 -54.65625 C 33.375 -53.632812 32.898438 -51.988281 31.953125 -49.71875 C 31.015625 -47.457031 30.210938 -46.160156 29.546875 -45.828125 C 27.671875 -46.984375 25.738281 -47.5625 23.75 -47.5625 C 21.582031 -47.5625 20.5 -46.125 20.5 -43.25 L 20.5 -41.515625 L 27.390625 -41.515625 C 28.390625 -41.515625 28.890625 -39.738281 28.890625 -36.1875 C 28.890625 -32.320312 28.253906 -30.390625 26.984375 -30.390625 L 21.671875 -30.390625 L 21.671875 -1 C 21.671875 -0.332031 19.21875 0 14.3125 0 C 9.414062 0 6.96875 -0.332031 6.96875 -1 Z M 6.96875 -30.46875 "/></g></g></g><g fill="#4d4d4d" fill-opacity="1"><g transform="translate(313.211564, 315.230667)"><g><path d="M 0.828125 -41.09375 C 0.828125 -41.695312 3.359375 -42 8.421875 -42 C 13.484375 -42 16.097656 -41.722656 16.265625 -41.171875 L 22.25 -21.578125 L 27.96875 -41.34375 C 28.195312 -41.78125 29.914062 -42 33.125 -42 C 40.488281 -42 44.003906 -41.640625 43.671875 -40.921875 L 24.15625 14.609375 C 24.101562 14.941406 22.59375 15.109375 19.625 15.109375 C 16.664062 15.109375 13.910156 15.007812 11.359375 14.8125 C 8.816406 14.625 7.601562 14.390625 7.71875 14.109375 L 14.9375 -3.328125 Z M 0.828125 -41.09375 "/></g></g></g><g clip-path="url(#b80d0d20f0)"><path fill="#4d4d4d" d="M 247.472656 196.25 C 233.347656 196.25 221.90625 207.691406 221.90625 221.816406 C 221.90625 235.933594 233.347656 247.386719 247.472656 247.386719 C 261.589844 247.386719 273.042969 235.941406 273.042969 221.816406 C 273.035156 207.691406 261.589844 196.25 247.472656 196.25 Z M 247.472656 196.25 " fill-opacity="1" fill-rule="nonzero"/></g><path fill="#4d4d4d" d="M 237.757812 57.921875 C 244.457031 45.945312 255.039062 32.128906 267.441406 34.257812 C 279.851562 36.386719 285.210938 52.953125 287.53125 66.472656 C 288.273438 70.835938 288.757812 75.171875 289.0625 79.160156 L 296.625 79.160156 C 296.308594 74.855469 295.789062 70.125 294.972656 65.316406 C 293.304688 55.488281 290.695312 47.382812 287.21875 41.234375 C 282.566406 32.988281 276.335938 28.140625 268.71875 26.832031 C 261.097656 25.523438 253.617188 28.015625 246.476562 34.238281 C 241.148438 38.878906 235.984375 45.644531 231.128906 54.347656 C 225.847656 63.820312 222.097656 73.4375 220.074219 79.167969 L 228.09375 79.167969 C 230.164062 73.601562 233.453125 65.625 237.757812 57.921875 Z M 237.757812 57.921875 " fill-opacity="1" fill-rule="nonzero"/><path fill="#2fbaed" d="M 324.484375 79.167969 L 199.289062 79.167969 C 191 79.167969 182.0625 85.59375 179.425781 93.449219 L 150.789062 178.667969 C 148.148438 186.519531 151.28125 190.480469 157.742188 187.464844 C 157.742188 187.464844 157.742188 187.464844 164.589844 187.464844 C 183.53125 187.464844 198.945312 202.875 198.945312 221.816406 C 198.945312 224.226562 198.945312 224.226562 198.945312 224.226562 C 198.542969 226.769531 201.734375 228.847656 206.03125 228.847656 C 210.332031 228.847656 213.515625 226.769531 213.121094 224.226562 C 213.121094 224.226562 213.121094 224.226562 213.121094 221.816406 C 213.121094 202.871094 228.53125 187.464844 247.472656 187.464844 C 266.414062 187.464844 281.828125 202.875 281.828125 221.816406 C 281.828125 224.226562 281.828125 224.226562 281.828125 224.226562 C 281.425781 226.769531 282.933594 228.847656 285.179688 228.847656 C 287.417969 228.847656 291.414062 222.417969 294.054688 214.566406 L 334.757812 93.449219 C 337.390625 85.589844 332.769531 79.167969 324.484375 79.167969 Z M 232.054688 108.570312 C 227.574219 108.570312 223.945312 104.9375 223.945312 100.457031 C 223.945312 95.976562 227.574219 92.347656 232.054688 92.347656 C 236.535156 92.347656 240.164062 95.976562 240.164062 100.457031 C 240.160156 104.9375 236.527344 108.570312 232.054688 108.570312 Z M 286.992188 108.570312 C 282.511719 108.570312 278.882812 104.9375 278.882812 100.457031 C 278.882812 95.976562 282.511719 92.347656 286.992188 92.347656 C 291.472656 92.347656 295.097656 95.976562 295.097656 100.457031 C 295.097656 104.9375 291.472656 108.570312 286.992188 108.570312 Z M 286.992188 108.570312 " fill-opacity="1" fill-rule="nonzero"/><g clip-path="url(#46bc9834d5)"><path fill="#4d4d4d" d="M 164.585938 196.25 C 150.460938 196.25 139.015625 207.691406 139.015625 221.816406 C 139.015625 235.933594 150.460938 247.386719 164.585938 247.386719 C 178.703125 247.386719 190.152344 235.941406 190.152344 221.816406 C 190.152344 207.691406 178.707031 196.25 164.585938 196.25 Z M 164.585938 196.25 " fill-opacity="1" fill-rule="nonzero"/></g><path fill="#4d4d4d" d="M 68.988281 95.75 L 167.414062 95.75 C 170.183594 95.75 172.4375 93.503906 172.4375 90.730469 C 172.4375 87.957031 170.191406 85.707031 167.414062 85.707031 L 68.988281 85.707031 C 66.21875 85.707031 63.964844 87.953125 63.964844 90.730469 C 63.964844 93.503906 66.21875 95.75 68.988281 95.75 Z M 68.988281 95.75 " fill-opacity="1" fill-rule="nonzero"/><path fill="#4d4d4d" d="M 51.425781 128.144531 L 149.851562 128.144531 C 152.621094 128.144531 154.875 125.898438 154.875 123.121094 C 154.875 120.351562 152.628906 118.097656 149.851562 118.097656 L 51.425781 118.097656 C 48.65625 118.097656 46.402344 120.34375 46.402344 123.121094 C 46.402344 125.898438 48.648438 128.144531 51.425781 128.144531 Z M 51.425781 128.144531 " fill-opacity="1" fill-rule="nonzero"/><g clip-path="url(#e47e442f78)"><path fill="#4d4d4d" d="M 144.039062 155.511719 C 144.039062 152.742188 141.792969 150.488281 139.015625 150.488281 L 40.597656 150.488281 C 37.828125 150.488281 35.574219 152.734375 35.574219 155.511719 C 35.574219 158.28125 37.820312 160.535156 40.597656 160.535156 L 139.015625 160.535156 C 141.792969 160.535156 144.039062 158.28125 144.039062 155.511719 Z M 144.039062 155.511719 " fill-opacity="1" fill-rule="nonzero"/></g><g clip-path="url(#2d17644f2b)"><path fill="#ffffff" d="M 284.429688 139.574219 C 284.394531 139.410156 284.359375 139.246094 284.316406 139.085938 L 284.175781 138.613281 C 284.097656 138.300781 283.957031 138.007812 283.863281 137.71875 C 283.609375 137.148438 283.34375 136.617188 283.023438 136.125 C 282.6875 135.644531 282.339844 135.179688 281.933594 134.765625 C 281.121094 133.941406 280.167969 133.257812 279.039062 132.753906 L 278.828125 132.65625 L 278.609375 132.570312 C 278.460938 132.519531 278.3125 132.457031 278.160156 132.402344 C 277.855469 132.316406 277.539062 132.191406 277.207031 132.121094 C 276.875 132.035156 276.535156 131.972656 276.175781 131.910156 C 275.816406 131.855469 275.445312 131.8125 275.046875 131.765625 C 275.621094 131.210938 276.355469 130.839844 277.136719 130.605469 C 277.527344 130.484375 277.933594 130.4375 278.351562 130.378906 C 278.558594 130.355469 278.765625 130.367188 278.976562 130.359375 L 279.292969 130.359375 C 279.398438 130.363281 279.5 130.378906 279.605469 130.390625 C 281.296875 130.546875 282.945312 131.371094 284.148438 132.617188 C 284.757812 133.238281 285.238281 133.976562 285.605469 134.753906 C 285.960938 135.542969 286.164062 136.390625 286.234375 137.230469 C 286.242188 137.441406 286.238281 137.65625 286.238281 137.863281 C 286.234375 137.96875 286.238281 138.070312 286.230469 138.175781 C 286.21875 138.28125 286.203125 138.382812 286.191406 138.488281 C 286.160156 138.695312 286.140625 138.898438 286.097656 139.097656 C 286.050781 139.300781 286 139.496094 285.933594 139.691406 C 285.675781 140.46875 285.28125 141.183594 284.710938 141.746094 C 284.652344 140.949219 284.574219 140.242188 284.429688 139.574219 Z M 205.558594 139.574219 C 205.59375 139.410156 205.625 139.246094 205.671875 139.085938 L 205.8125 138.613281 C 205.886719 138.300781 206.027344 138.007812 206.125 137.71875 C 206.378906 137.148438 206.644531 136.617188 206.964844 136.125 C 207.300781 135.644531 207.644531 135.179688 208.054688 134.765625 C 208.867188 133.941406 209.816406 133.257812 210.945312 132.753906 L 211.160156 132.65625 L 211.378906 132.570312 C 211.523438 132.519531 211.671875 132.457031 211.828125 132.402344 C 212.132812 132.316406 212.449219 132.191406 212.78125 132.121094 C 213.109375 132.035156 213.453125 131.972656 213.8125 131.910156 C 214.171875 131.855469 214.542969 131.8125 214.941406 131.765625 C 214.363281 131.210938 213.632812 130.839844 212.851562 130.605469 C 212.457031 130.484375 212.050781 130.4375 211.636719 130.378906 C 211.429688 130.355469 211.222656 130.367188 211.011719 130.359375 L 210.695312 130.359375 C 210.589844 130.363281 210.484375 130.378906 210.378906 130.390625 C 208.6875 130.546875 207.042969 131.371094 205.835938 132.617188 C 205.226562 133.238281 204.75 133.976562 204.378906 134.753906 C 204.023438 135.542969 203.824219 136.390625 203.75 137.230469 C 203.742188 137.441406 203.75 137.65625 203.75 137.863281 C 203.75 137.96875 203.746094 138.070312 203.757812 138.175781 C 203.765625 138.28125 203.78125 138.382812 203.796875 138.488281 C 203.828125 138.695312 203.847656 138.898438 203.890625 139.097656 C 203.9375 139.300781 203.988281 139.496094 204.050781 139.691406 C 204.308594 140.46875 204.703125 141.183594 205.273438 141.746094 C 205.332031 140.949219 205.410156 140.242188 205.558594 139.574219 Z M 280.152344 134.085938 C 279.902344 134.433594 279.652344 134.777344 279.390625 135.121094 L 279.003906 135.636719 L 278.808594 135.894531 L 278.605469 136.140625 L 277.765625 137.125 L 277.339844 137.613281 L 276.894531 138.078125 C 276.296875 138.703125 275.695312 139.328125 275.050781 139.90625 L 274.085938 140.78125 C 273.757812 141.0625 273.417969 141.335938 273.082031 141.613281 C 272.210938 142.324219 268.511719 146.382812 268.285156 146.65625 C 268.066406 146.933594 267.839844 147.207031 267.613281 147.484375 C 267.390625 147.761719 267.164062 148.039062 266.921875 148.300781 C 265.027344 150.433594 262.839844 152.335938 260.417969 153.941406 C 260.113281 154.136719 259.8125 154.34375 259.503906 154.53125 L 258.5625 155.082031 C 257.9375 155.457031 257.277344 155.769531 256.621094 156.09375 C 255.308594 156.746094 253.929688 157.257812 252.53125 157.71875 C 252.183594 157.851562 251.820312 157.925781 251.46875 158.027344 L 250.394531 158.308594 C 249.675781 158.460938 248.953125 158.609375 248.230469 158.742188 C 248.222656 158.742188 248.214844 158.742188 248.210938 158.742188 L 247.117188 158.878906 C 246.746094 158.917969 246.382812 158.984375 246.007812 158.996094 L 244.898438 159.058594 L 244.339844 159.09375 C 244.15625 159.101562 243.96875 159.09375 243.785156 159.09375 L 242.671875 159.070312 C 242.484375 159.066406 242.296875 159.066406 242.113281 159.054688 L 241.558594 159.007812 C 240.816406 158.9375 240.074219 158.898438 239.34375 158.757812 L 238.246094 158.574219 C 237.878906 158.515625 237.523438 158.414062 237.160156 158.332031 L 236.078125 158.074219 C 235.722656 157.984375 235.375 157.855469 235.019531 157.746094 L 233.964844 157.40625 C 233.621094 157.277344 233.28125 157.136719 232.9375 157 C 232.59375 156.863281 232.253906 156.726562 231.914062 156.585938 C 231.582031 156.429688 231.253906 156.265625 230.925781 156.101562 L 229.941406 155.617188 C 229.617188 155.441406 229.304688 155.257812 228.988281 155.070312 L 228.046875 154.511719 C 227.734375 154.324219 227.445312 154.105469 227.140625 153.90625 C 226.542969 153.496094 225.941406 153.09375 225.386719 152.628906 L 224.542969 151.953125 L 224.125 151.613281 C 223.988281 151.496094 223.859375 151.367188 223.726562 151.246094 C 223.203125 150.753906 222.664062 150.28125 222.160156 149.777344 L 220.699219 148.210938 L 220.527344 148.023438 C 220.523438 148.015625 220.519531 148.011719 220.515625 148.007812 L 220.351562 147.808594 L 220.015625 147.394531 C 219.792969 147.121094 215.382812 142.195312 214.535156 141.5 L 214.03125 141.089844 L 213.78125 140.882812 L 213.539062 140.664062 L 212.582031 139.789062 L 211.632812 138.910156 C 211.320312 138.613281 211.03125 138.292969 210.730469 137.984375 L 209.84375 137.046875 L 209.402344 136.574219 L 208.988281 136.082031 C 208.980469 136.074219 208.972656 136.0625 208.964844 136.054688 C 208.71875 135.753906 209.101562 135.351562 209.414062 135.578125 C 209.421875 135.585938 209.429688 135.589844 209.4375 135.59375 L 209.945312 135.972656 L 210.472656 136.332031 L 211.519531 137.046875 C 211.867188 137.285156 212.207031 137.527344 212.558594 137.757812 L 213.628906 138.429688 L 214.6875 139.097656 L 214.945312 139.261719 C 214.949219 139.265625 214.953125 139.269531 214.960938 139.273438 L 215.226562 139.421875 L 215.769531 139.730469 C 218.652344 141.40625 221.617188 142.875 224.691406 144.019531 C 230.820312 146.34375 237.289062 147.523438 243.769531 147.496094 C 250.25 147.46875 256.738281 146.296875 262.890625 144.019531 C 269.058594 141.753906 274.863281 138.421875 280.152344 134.085938 " fill-opacity="1" fill-rule="nonzero"/></g><g fill="#4d4d4d" fill-opacity="1"><g transform="translate(112.672304, 343.309552)"><g><path d="M 10.421875 -9.453125 C 10.421875 -8.347656 10.039062 -7.425781 9.28125 -6.6875 C 8.519531 -5.945312 7.359375 -5.578125 5.796875 -5.578125 L 3.21875 -5.578125 L 3.21875 0 L 1.484375 0 L 1.484375 -13.375 L 5.796875 -13.375 C 7.304688 -13.375 8.453125 -13.007812 9.234375 -12.28125 C 10.023438 -11.550781 10.421875 -10.609375 10.421875 -9.453125 Z M 5.796875 -7.015625 C 6.765625 -7.015625 7.476562 -7.222656 7.9375 -7.640625 C 8.40625 -8.066406 8.640625 -8.671875 8.640625 -9.453125 C 8.640625 -11.109375 7.691406 -11.9375 5.796875 -11.9375 L 3.21875 -11.9375 L 3.21875 -7.015625 Z M 5.796875 -7.015625 "/></g></g></g><g fill="#4d4d4d" fill-opacity="1"><g transform="translate(126.036829, 343.309552)"><g><path d="M 7.546875 0.140625 C 6.296875 0.140625 5.160156 -0.148438 4.140625 -0.734375 C 3.117188 -1.316406 2.3125 -2.128906 1.71875 -3.171875 C 1.125 -4.210938 0.828125 -5.390625 0.828125 -6.703125 C 0.828125 -8.003906 1.125 -9.175781 1.71875 -10.21875 C 2.3125 -11.257812 3.117188 -12.070312 4.140625 -12.65625 C 5.160156 -13.238281 6.296875 -13.53125 7.546875 -13.53125 C 8.796875 -13.53125 9.929688 -13.238281 10.953125 -12.65625 C 11.972656 -12.070312 12.773438 -11.257812 13.359375 -10.21875 C 13.953125 -9.1875 14.25 -8.015625 14.25 -6.703125 C 14.25 -5.378906 13.953125 -4.195312 13.359375 -3.15625 C 12.773438 -2.125 11.972656 -1.316406 10.953125 -0.734375 C 9.929688 -0.148438 8.796875 0.140625 7.546875 0.140625 Z M 7.546875 -1.375 C 8.472656 -1.375 9.3125 -1.59375 10.0625 -2.03125 C 10.8125 -2.46875 11.398438 -3.085938 11.828125 -3.890625 C 12.253906 -4.703125 12.46875 -5.640625 12.46875 -6.703125 C 12.46875 -7.773438 12.253906 -8.707031 11.828125 -9.5 C 11.398438 -10.300781 10.8125 -10.921875 10.0625 -11.359375 C 9.320312 -11.796875 8.484375 -12.015625 7.546875 -12.015625 C 6.597656 -12.015625 5.75 -11.796875 5 -11.359375 C 4.257812 -10.921875 3.675781 -10.300781 3.25 -9.5 C 2.820312 -8.707031 2.609375 -7.773438 2.609375 -6.703125 C 2.609375 -5.640625 2.820312 -4.703125 3.25 -3.890625 C 3.675781 -3.085938 4.265625 -2.46875 5.015625 -2.03125 C 5.765625 -1.59375 6.609375 -1.375 7.546875 -1.375 Z M 7.546875 -1.375 "/></g></g></g><g fill="#4d4d4d" fill-opacity="1"><g transform="translate(143.369714, 343.309552)"><g><path d="M 3.21875 -13.375 L 3.21875 0 L 1.484375 0 L 1.484375 -13.375 Z M 3.21875 -13.375 "/></g></g></g><g fill="#4d4d4d" fill-opacity="1"><g transform="translate(150.350384, 343.309552)"><g><path d="M 11.984375 0 L 10.25 0 L 3.21875 -10.65625 L 3.21875 0 L 1.484375 0 L 1.484375 -13.390625 L 3.21875 -13.390625 L 10.25 -2.765625 L 10.25 -13.390625 L 11.984375 -13.390625 Z M 11.984375 0 "/></g></g></g><g fill="#4d4d4d" fill-opacity="1"><g transform="translate(166.092099, 343.309552)"><g><path d="M 9.703125 -13.375 L 9.703125 -11.953125 L 6.0625 -11.953125 L 6.0625 0 L 4.3125 0 L 4.3125 -11.953125 L 0.65625 -11.953125 L 0.65625 -13.375 Z M 9.703125 -13.375 "/></g></g></g><g fill="#4d4d4d" fill-opacity="1"><g transform="translate(178.728142, 343.309552)"><g/></g></g><g fill="#4d4d4d" fill-opacity="1"><g transform="translate(186.111393, 343.309552)"><g><path d="M 7.546875 0.140625 C 6.296875 0.140625 5.160156 -0.148438 4.140625 -0.734375 C 3.117188 -1.316406 2.3125 -2.128906 1.71875 -3.171875 C 1.125 -4.210938 0.828125 -5.390625 0.828125 -6.703125 C 0.828125 -8.003906 1.125 -9.175781 1.71875 -10.21875 C 2.3125 -11.257812 3.117188 -12.070312 4.140625 -12.65625 C 5.160156 -13.238281 6.296875 -13.53125 7.546875 -13.53125 C 8.796875 -13.53125 9.929688 -13.238281 10.953125 -12.65625 C 11.972656 -12.070312 12.773438 -11.257812 13.359375 -10.21875 C 13.953125 -9.1875 14.25 -8.015625 14.25 -6.703125 C 14.25 -5.378906 13.953125 -4.195312 13.359375 -3.15625 C 12.773438 -2.125 11.972656 -1.316406 10.953125 -0.734375 C 9.929688 -0.148438 8.796875 0.140625 7.546875 0.140625 Z M 7.546875 -1.375 C 8.472656 -1.375 9.3125 -1.59375 10.0625 -2.03125 C 10.8125 -2.46875 11.398438 -3.085938 11.828125 -3.890625 C 12.253906 -4.703125 12.46875 -5.640625 12.46875 -6.703125 C 12.46875 -7.773438 12.253906 -8.707031 11.828125 -9.5 C 11.398438 -10.300781 10.8125 -10.921875 10.0625 -11.359375 C 9.320312 -11.796875 8.484375 -12.015625 7.546875 -12.015625 C 6.597656 -12.015625 5.75 -11.796875 5 -11.359375 C 4.257812 -10.921875 3.675781 -10.300781 3.25 -9.5 C 2.820312 -8.707031 2.609375 -7.773438 2.609375 -6.703125 C 2.609375 -5.640625 2.820312 -4.703125 3.25 -3.890625 C 3.675781 -3.085938 4.265625 -2.46875 5.015625 -2.03125 C 5.765625 -1.59375 6.609375 -1.375 7.546875 -1.375 Z M 7.546875 -1.375 "/></g></g></g><g fill="#4d4d4d" fill-opacity="1"><g transform="translate(203.444277, 343.309552)"><g><path d="M 9.03125 -13.375 L 9.03125 -11.953125 L 3.21875 -11.953125 L 3.21875 -7.4375 L 7.9375 -7.4375 L 7.9375 -6.03125 L 3.21875 -6.03125 L 3.21875 0 L 1.484375 0 L 1.484375 -13.375 Z M 9.03125 -13.375 "/></g></g></g><g fill="#4d4d4d" fill-opacity="1"><g transform="translate(215.371005, 343.309552)"><g/></g></g><g fill="#4d4d4d" fill-opacity="1"><g transform="translate(222.75426, 343.309552)"><g><path d="M 5.71875 0.140625 C 4.832031 0.140625 4.039062 -0.015625 3.34375 -0.328125 C 2.644531 -0.648438 2.097656 -1.085938 1.703125 -1.640625 C 1.304688 -2.191406 1.101562 -2.832031 1.09375 -3.5625 L 2.953125 -3.5625 C 3.015625 -2.9375 3.269531 -2.410156 3.71875 -1.984375 C 4.175781 -1.554688 4.84375 -1.34375 5.71875 -1.34375 C 6.550781 -1.34375 7.207031 -1.550781 7.6875 -1.96875 C 8.164062 -2.382812 8.40625 -2.914062 8.40625 -3.5625 C 8.40625 -4.082031 8.265625 -4.5 7.984375 -4.8125 C 7.703125 -5.132812 7.347656 -5.378906 6.921875 -5.546875 C 6.503906 -5.710938 5.9375 -5.890625 5.21875 -6.078125 C 4.332031 -6.304688 3.625 -6.535156 3.09375 -6.765625 C 2.5625 -7.003906 2.109375 -7.367188 1.734375 -7.859375 C 1.359375 -8.347656 1.171875 -9.007812 1.171875 -9.84375 C 1.171875 -10.570312 1.351562 -11.21875 1.71875 -11.78125 C 2.09375 -12.34375 2.613281 -12.773438 3.28125 -13.078125 C 3.957031 -13.390625 4.734375 -13.546875 5.609375 -13.546875 C 6.859375 -13.546875 7.878906 -13.234375 8.671875 -12.609375 C 9.472656 -11.984375 9.925781 -11.148438 10.03125 -10.109375 L 8.109375 -10.109375 C 8.046875 -10.617188 7.773438 -11.066406 7.296875 -11.453125 C 6.828125 -11.847656 6.207031 -12.046875 5.4375 -12.046875 C 4.707031 -12.046875 4.109375 -11.859375 3.640625 -11.484375 C 3.179688 -11.109375 2.953125 -10.582031 2.953125 -9.90625 C 2.953125 -9.414062 3.085938 -9.015625 3.359375 -8.703125 C 3.640625 -8.398438 3.976562 -8.164062 4.375 -8 C 4.78125 -7.84375 5.347656 -7.664062 6.078125 -7.46875 C 6.960938 -7.21875 7.671875 -6.972656 8.203125 -6.734375 C 8.742188 -6.503906 9.207031 -6.140625 9.59375 -5.640625 C 9.976562 -5.148438 10.171875 -4.484375 10.171875 -3.640625 C 10.171875 -2.992188 10 -2.378906 9.65625 -1.796875 C 9.3125 -1.222656 8.796875 -0.753906 8.109375 -0.390625 C 7.429688 -0.0351562 6.632812 0.140625 5.71875 0.140625 Z M 5.71875 0.140625 "/></g></g></g><g fill="#4d4d4d" fill-opacity="1"><g transform="translate(236.272158, 343.309552)"><g><path d="M 9.375 -2.96875 L 3.546875 -2.96875 L 2.46875 0 L 0.640625 0 L 5.46875 -13.296875 L 7.484375 -13.296875 L 12.296875 0 L 10.453125 0 Z M 8.890625 -4.390625 L 6.46875 -11.140625 L 4.046875 -4.390625 Z M 8.890625 -4.390625 "/></g></g></g><g fill="#4d4d4d" fill-opacity="1"><g transform="translate(251.457908, 343.309552)"><g><path d="M 3.21875 -1.421875 L 7.90625 -1.421875 L 7.90625 0 L 1.484375 0 L 1.484375 -13.375 L 3.21875 -13.375 Z M 3.21875 -1.421875 "/></g></g></g><g fill="#4d4d4d" fill-opacity="1"><g transform="translate(262.004339, 343.309552)"><g><path d="M 3.21875 -11.953125 L 3.21875 -7.484375 L 8.09375 -7.484375 L 8.09375 -6.046875 L 3.21875 -6.046875 L 3.21875 -1.4375 L 8.671875 -1.4375 L 8.671875 0 L 1.484375 0 L 1.484375 -13.390625 L 8.671875 -13.390625 L 8.671875 -11.953125 Z M 3.21875 -11.953125 "/></g></g></g></svg>